<svg xmlns="http://www.w3.org/2000/svg" fill="none" stroke="currentColor" stroke-linecap="round" stroke-linejoin="round" stroke-width="1.6" viewBox="0 0 24 24"><path d="M22 14.596c-.172.523-1.112 1.404-2.403 1.404s-2.67-1.338-2.67-3.103v-.828c0-1.832 1.275-3.068 2.67-3.068S21.794 9.7 22 10.567m-7.458-.256c-.219-.691-1.213-1.346-2.359-1.31s-2.171.832-2.171 1.776.678 1.286 2.172 1.431c1.493.145 2.306.925 2.358 1.752.051.826-.734 2.04-2.358 2.04-1.424 0-2.489-1.31-2.549-2.062m-2.382.783C6.827 15.588 5.945 16 4.758 16 3.572 16 2 15.088 2 12.783v-.672c0-1.52 1.165-3.11 2.758-3.11 1.594 0 2.654 1.505 2.495 3.283H2.478"/></svg>