<svg xmlns="http://www.w3.org/2000/svg" width="24" height="24" fill="none" viewBox="0 0 24 24"><path stroke="currentColor" stroke-linecap="round" stroke-linejoin="round" stroke-width="1.5" d="M6 18c-1.245.396-2 1.184-2 1.754C4 20.994 7.582 22 12 22s8-1.006 8-2.246c0-.57-.755-1.358-2-1.754m-3.5-9a2.5 2.5 0 1 1-5 0 2.5 2.5 0 0 1 5 0"/><path stroke="currentColor" stroke-linecap="round" stroke-linejoin="round" stroke-width="1.5" d="M19 9.2c0 4.78-5.102 7.813-6.595 8.597a.86.86 0 0 1-.81 0C10.102 17.013 5 13.981 5 9.2 5 5.224 8.134 2 12 2s7 3.224 7 7.2"/></svg>