<svg xmlns="http://www.w3.org/2000/svg" viewBox="0 0 43 56"><g fill="none" fill-rule="evenodd"><path fill="#dde3e9" d="M30.485 0H1.463C.655 0 0 .655 0 1.926V55c0 .345.655 1 1.463 1h40.074c.808 0 1.463-.655 1.463-1V12.978c0-.696-.093-.92-.257-1.085L31.107.257A.88.88 0 0 0 30.485 0"/><path fill="#a7b3be" d="M31 .151V12h11.849z"/><path fill="#91cda0" d="M41.537 56H1.463A1.463 1.463 0 0 1 0 54.537V39h43v15.537c0 .808-.655 1.463-1.463 1.463"/><path fill="#fff" d="M13.879 48.106 16.436 53h-1.901l-1.599-3.801h-.137L11.076 53h-1.9l2.556-4.894-2.72-5.182h1.873l1.777 4.101h.137l1.928-4.101H16.6zm6.658-5.182v8.832h4.635V53h-6.303V42.924zm12.004 7.314q0 .547-.226 1.06-.225.513-.635.902-.41.39-1.012.622a3.8 3.8 0 0 1-1.367.233q-.329 0-.677-.034a6 6 0 0 1-.704-.117 3.7 3.7 0 0 1-.677-.225 2.2 2.2 0 0 1-.553-.349l.287-1.176q.19.11.485.212.293.103.608.192t.629.143q.315.055.588.055.834 0 1.278-.39t.445-1.155q0-.465-.315-.793a3.4 3.4 0 0 0-.786-.595 20 20 0 0 0-1.018-.533 6 6 0 0 1-1.026-.629 3.3 3.3 0 0 1-.793-.854q-.314-.492-.314-1.231 0-.67.246-1.189a2.65 2.65 0 0 1 .663-.882q.417-.362.971-.554a3.5 3.5 0 0 1 1.169-.191q.628 0 1.271.116t1.039.376a10 10 0 0 1-.191.39l-.205.396q-.096.185-.164.308a1 1 0 0 1-.082.136 2 2 0 0 1-.185-.109 1.4 1.4 0 0 0-.294-.137 2 2 0 0 0-.506-.095 5 5 0 0 0-.806.013 1.4 1.4 0 0 0-.52.158q-.246.129-.437.321a1.5 1.5 0 0 0-.301.43q-.11.24-.11.458 0 .547.315.882.314.335.779.588t1.012.492q.547.24 1.018.582.472.34.787.854.314.513.314 1.319"/><path fill="#c8bdb8" d="M17 16v-4H5v22h33V16zM7 14h8v2H7zm0 4h8v2H7zm0 4h8v2H7zm0 4h8v2H7zm0 4h8v2H7zm10 0h19v2H17zm0-4h19v2H17zm0-4h19v2H17zm0-4h19v2H17z"/></g></svg>