<svg xmlns="http://www.w3.org/2000/svg" viewBox="0 0 42 59"><g fill="none"><path fill="#a7b3be" d="M42 12.014H32a2 2 0 0 1-2-2v-10z"/><path fill="#dde3e9" d="M42 12.014H32a2 2 0 0 1-2-2v-10H2a2 2 0 0 0-2 2v54a2 2 0 0 0 2 2h38a2 2 0 0 0 2-2z"/><path fill="#a6b3be" d="M36 49.014H26a1 1 0 1 1 0-2h10a1 1 0 1 1 0 2m-5 4h-5a1 1 0 1 1 0-2h5a1 1 0 1 1 0 2m5 0h-1a1 1 0 1 1 0-2h1a1 1 0 1 1 0 2"/><path fill="#424a60" d="M6 15h29.25v26H6z"/><path fill="#f0ce49" d="M15.75 23.125a2.925 2.925 0 1 1-5.85 0 2.925 2.925 0 0 1 5.85 0"/><path fill="#199172" d="m35.25 35.222-.636-.722-7.634-7.15-6.68 7.475L26.344 41h8.906z"/><path fill="#25ae88" d="m23.62 38.386-6.905-7.136L6 41h20.15z"/></g></svg>