<svg xmlns="http://www.w3.org/2000/svg" viewBox="0 0 43 56"><g fill="none" fill-rule="evenodd"><path fill="#dde3e9" d="M30.485 0H1.463C.655 0 0 .655 0 1.926V55c0 .345.655 1 1.463 1h40.074c.808 0 1.463-.655 1.463-1V12.978c0-.696-.093-.92-.257-1.085L31.107.257A.88.88 0 0 0 30.485 0"/><path fill="#a7b3be" d="M31 .151V12h11.849z"/><path fill="#9777a8" d="M41.537 56H1.463A1.463 1.463 0 0 1 0 54.537V39h43v15.537c0 .808-.655 1.463-1.463 1.463"/><path fill="#fff" d="M10.522 42.719v7.847q0 .712-.26 1.197a2.14 2.14 0 0 1-.697.779 2.8 2.8 0 0 1-1.005.41 6 6 0 0 1-1.169.116q-.302 0-.704-.061a6 6 0 0 1-.834-.192 9 9 0 0 1-.828-.293 3 3 0 0 1-.669-.37l.697-1.107q.136.095.389.198c.253.103.354.132.554.192q.3.088.629.157t.615.068q.725 0 1.156-.28t.458-.95v-7.711zm8.162 7.519q0 .547-.226 1.06a2.8 2.8 0 0 1-.636.902q-.41.39-1.012.622a3.8 3.8 0 0 1-1.367.233q-.328 0-.676-.034a6 6 0 0 1-.704-.117 3.7 3.7 0 0 1-.677-.225 2.2 2.2 0 0 1-.554-.349l.287-1.176q.191.11.486.212.293.103.608.192t.629.143.588.055q.833 0 1.278-.39.444-.39.444-1.155 0-.465-.314-.793a3.4 3.4 0 0 0-.786-.595 20 20 0 0 0-1.019-.533 6.3 6.3 0 0 1-1.025-.629 3.3 3.3 0 0 1-.793-.854q-.315-.492-.315-1.231 0-.67.247-1.189.245-.52.663-.882a2.9 2.9 0 0 1 .97-.554 3.5 3.5 0 0 1 1.169-.191q.629 0 1.272.116.642.116 1.039.376a10 10 0 0 1-.192.39l-.205.396a9 9 0 0 1-.164.308 1 1 0 0 1-.082.136 2 2 0 0 1-.184-.109 1.4 1.4 0 0 0-.294-.137 2 2 0 0 0-.506-.095 5 5 0 0 0-.807.013 1.4 1.4 0 0 0-.519.157q-.246.13-.438.322a1.5 1.5 0 0 0-.301.431 1.1 1.1 0 0 0-.109.458q0 .546.314.881.315.335.78.588.464.253 1.012.492.547.24 1.018.582.472.34.786.854.315.513.315 1.319m9.898-2.324q0 1.272-.321 2.242-.321.971-.889 1.614-.567.643-1.326.97a4.1 4.1 0 0 1-1.661.328 4.1 4.1 0 0 1-1.661-.328 3.7 3.7 0 0 1-1.326-.97q-.567-.643-.889-1.614-.321-.97-.321-2.242t.321-2.235.889-1.607q.566-.642 1.326-.977a4.1 4.1 0 0 1 1.661-.335q.902 0 1.661.335t1.326.977q.568.643.889 1.607.321.963.321 2.235m-4.238 3.815q.505 0 .964-.199.458-.198.82-.649.362-.452.567-1.183.206-.73.219-1.784-.014-1.026-.212-1.743t-.547-1.183a2.1 2.1 0 0 0-.793-.67 2.2 2.2 0 0 0-.936-.205q-.505 0-.964.192a2.06 2.06 0 0 0-.82.649q-.363.458-.568 1.183-.205.724-.218 1.777.013 1.026.211 1.75t.547 1.183q.35.457.793.67.444.212.937.212m13.836-8.805V53h-1.668l-3.951-6.945V53h-1.668V42.924h1.668l3.951 6.945v-6.945z"/><path fill="#9777a8" d="M13 19v-4c0-.551.448-1 1-1a1 1 0 1 0 0-2c-1.654 0-3 1.346-3 3v4c0 1.103-.897 2-2 2a1 1 0 1 0 0 2c1.103 0 2 .897 2 2v4c0 1.654 1.346 3 3 3a1 1 0 1 0 0-2c-.552 0-1-.449-1-1v-4c0-1.2-.542-2.266-1.382-3A3.98 3.98 0 0 0 13 19m8-2a1.5 1.5 0 1 0 .001 3.001A1.5 1.5 0 0 0 21 17m12 4c-1.102 0-2-.897-2-2v-4c0-1.654-1.346-3-3-3a1 1 0 1 0 0 2c.552 0 1 .449 1 1v4c0 1.2.542 2.266 1.382 3A3.98 3.98 0 0 0 29 25v4c0 .551-.448 1-1 1a1 1 0 1 0 0 2c1.654 0 3-1.346 3-3v-4c0-1.103.898-2 2-2a1 1 0 1 0 0-2m-12 3a1 1 0 0 0-1 1v3a1 1 0 1 0 2 0v-3a1 1 0 0 0-1-1"/></g></svg>