<svg xmlns="http://www.w3.org/2000/svg" viewBox="0 0 43 56"><g fill="none" fill-rule="evenodd"><path fill="#dde3e9" d="M30.485 0H1.463C.655 0 0 .655 0 1.926V55c0 .345.655 1 1.463 1h40.074c.808 0 1.463-.655 1.463-1V12.978c0-.696-.093-.92-.257-1.085L31.107.257A.88.88 0 0 0 30.485 0"/><path fill="#a7b3be" d="M31 .151V12h11.849z"/><path fill="#cc4b4c" d="M13.014 33.324c-.348 0-.682-.113-.967-.326-1.041-.782-1.181-1.651-1.115-2.243.182-1.627 2.195-3.332 5.985-5.068 1.504-3.296 2.935-7.357 3.788-10.75-.998-2.173-1.967-4.99-1.261-6.644.248-.578.558-1.023 1.134-1.215a5 5 0 0 1 1.016-.172c.504 0 .947.649 1.261 1.049.295.377.964 1.174-.373 6.803 1.348 2.783 3.257 5.619 5.088 7.561 1.311-.237 2.439-.358 3.358-.358 1.566 0 2.515.366 2.902 1.117.32.622.188 1.349-.391 2.16-.557.779-1.324 1.191-2.22 1.191-1.216 0-2.632-.768-4.211-2.285-2.838.593-6.151 1.651-8.829 2.822-.836 1.774-1.637 3.203-2.383 4.251-1.023 1.437-1.907 2.107-2.782 2.107m2.662-5.126c-2.138 1.201-3.009 2.188-3.071 2.744-.01.092-.037.334.431.692.149-.047 1.019-.444 2.64-3.436m13.637-4.442c.815.627 1.014.944 1.547.944.234 0 .902-.01 1.21-.441.149-.209.207-.343.229-.414-.122-.066-.285-.197-1.175-.197-.504 0-1.139.021-1.811.108m-7.47-6.582a72 72 0 0 1-2.674 7.564 50 50 0 0 1 6.496-2.02c-1.35-1.568-2.699-3.526-3.822-5.544m-.607-8.462c-.098.033-1.33 1.757.096 3.216.949-2.115-.053-3.23-.096-3.216M41.537 56H1.463A1.463 1.463 0 0 1 0 54.537V39h43v15.537c0 .808-.655 1.463-1.463 1.463"/><path fill="#fff" d="M10.885 53H9.244V42.924h2.899q.642 0 1.271.205.629.206 1.128.615.5.41.807.991.307.582.307 1.306 0 .766-.259 1.388a2.9 2.9 0 0 1-.725 1.046q-.465.423-1.121.656a4.3 4.3 0 0 1-1.449.232h-1.217zm0-8.832v3.992h1.504q.3 0 .594-.102.294-.103.54-.335t.397-.65.15-1.032a3 3 0 0 0-.068-.567 1.65 1.65 0 0 0-.28-.616 1.66 1.66 0 0 0-.595-.492q-.383-.198-1.012-.198zm14.834 3.514q0 1.244-.267 2.126t-.677 1.476a3.5 3.5 0 0 1-.922.937 4.6 4.6 0 0 1-.992.512q-.478.172-.875.219-.396.048-.588.048h-3.814V42.924h3.035q1.272 0 2.236.403.963.404 1.599 1.073.636.67.95 1.525.315.854.315 1.757m-4.867 4.115q1.667 0 2.406-1.067.738-1.066.738-3.089 0-.629-.15-1.244a2.66 2.66 0 0 0-.581-1.115q-.43-.499-1.169-.806t-1.914-.308h-.957v7.629zm8.914-7.629v3.172h4.211v1.121h-4.211V53h-1.668V42.924H34.4v1.244z"/></g></svg>