<svg xmlns="http://www.w3.org/2000/svg" viewBox="0 0 42 59"><g fill="none" fill-rule="evenodd"><path fill="#a7b3be" d="M42 12.014H32a2 2 0 0 1-2-2v-10z"/><path fill="#dde3e9" d="M42 12.014H32a2 2 0 0 1-2-2v-10H2a2 2 0 0 0-2 2v54a2 2 0 0 0 2 2h38a2 2 0 0 0 2-2z"/><path fill="#f38774" d="M22 13.014v12h12c0-6.627-5.373-12-12-12"/><path fill="#f0c41a" d="M18 29.014v-12c-4.026 0-7.58 1.989-9.756 5.031z"/><path fill="#26b999" d="M8.268 22.013A11.9 11.9 0 0 0 6 29.014c0 6.627 5.372 12 12 12 6.627 0 12-5.373 12-12H18l-9.757-6.969"/><path fill="#a7b3be" d="M36 49.014H26a1 1 0 1 1 0-2h10a1 1 0 1 1 0 2m-5 4h-5a1 1 0 1 1 0-2h5a1 1 0 1 1 0 2m5 0h-1a1 1 0 1 1 0-2h1a1 1 0 1 1 0 2"/></g></svg>