<svg width="100" height="100" viewBox="0 0 100 100" fill="none" xmlns="http://www.w3.org/2000/svg">
<path fill-rule="evenodd" clip-rule="evenodd" d="M-25 0H124.977V99.9847H-25V0Z" fill="#199D00"/>
<path fill-rule="evenodd" clip-rule="evenodd" d="M12.7966 28.3425C12.6354 30.6809 12.4136 34.7931 14.4093 35.2165C16.8081 35.4382 15.4777 31.1445 16.3445 30.3785C16.5259 29.9753 16.8283 29.9753 16.8484 30.4793V34.1078C16.8283 35.3173 17.5943 35.6398 18.199 35.9019C18.8441 35.8414 19.2473 35.8615 19.5093 36.4663L19.7915 42.7758C19.7915 42.7758 21.2631 43.179 21.3235 39.228C21.4042 36.9098 20.8599 34.9544 21.1824 34.5109C21.1824 34.0675 21.7469 34.0473 22.15 34.2489C22.7749 34.6924 23.0572 35.2568 24.0247 35.0149C25.5165 34.6117 26.4034 33.886 26.4437 32.7572C26.3925 31.6454 26.161 30.5493 25.7584 29.5117C25.8188 29.3101 25.456 28.8062 25.5366 28.6046C25.7987 29.0077 26.2018 28.9876 26.3026 28.6046C26.0406 27.7579 25.6576 26.9718 25.0125 26.6291C24.4884 26.1654 23.7224 26.2662 23.4402 27.2338C23.4071 28.5045 23.8369 29.7439 24.6497 30.7212C24.9031 31.269 25.0074 31.8739 24.952 32.475C24.5287 32.737 24.1054 32.6161 23.7425 32.2532C23.7425 32.2532 22.5532 31.3461 22.5532 31.1647C22.8757 29.1489 22.6338 28.9271 22.4524 28.3627C22.3315 27.5967 21.9686 27.3548 21.6662 26.8307C21.3639 26.5081 20.9809 26.5081 20.7793 26.8307C20.2552 27.7378 20.4971 29.673 20.8801 30.5398C21.1623 31.3461 21.5654 31.8501 21.3639 31.8501C21.2026 32.2935 20.8801 32.1927 20.6382 31.6686C20.339 30.5583 20.1965 29.4117 20.2148 28.2619C20.1141 27.3548 20.0133 25.4397 19.4085 24.9559C19.0457 24.4722 18.5014 24.714 18.32 25.1575C18.269 26.0312 18.2892 26.9077 18.3804 27.7781C18.7836 29.1892 18.9046 30.4793 19.1061 31.9508C19.1666 33.9263 17.9571 32.8176 18.0176 31.8299C18.2998 30.5599 18.2192 28.5441 17.9773 28.0402C17.7757 27.5362 17.554 27.4152 17.0903 27.4959C16.6872 27.4556 15.7397 28.5038 15.4777 30.2777C15.4777 30.2777 15.2358 31.1848 15.135 31.971C14.9939 32.8781 14.4093 33.5232 13.986 31.8501C13.6231 30.6406 13.4014 27.637 12.7966 28.3425Z" fill="white"/>
<path fill-rule="evenodd" clip-rule="evenodd" d="M19.3279 37.9377L13.0789 40.9413C13.1393 39.5302 16.0421 36.95 18.0176 36.9097C19.3077 36.95 18.9852 37.4136 19.3279 37.9176V37.9377Z" fill="white"/>
<path fill-rule="evenodd" clip-rule="evenodd" d="M18.2393 39.893C14.9334 48.3796 25.9398 49.569 27.1694 40.2357C27.2904 39.8527 27.7742 39.4697 27.8346 40.0946C27.5726 48.5611 19.3279 49.1255 17.9168 46.4646C17.5741 45.8599 17.4733 44.4488 17.433 43.6021C17.2314 41.9492 16.3445 42.5942 16.2235 44.2472C16.0824 45.1543 16.1026 45.4164 16.1026 46.3033C16.546 52.9556 27.1896 50.0931 28.9232 44.5899C29.8303 41.546 28.7619 39.2883 29.2659 39.2883C30.3141 40.4373 31.8058 39.4496 32.1283 39.0464C32.2694 38.8448 32.6121 38.7239 32.854 38.9859C33.6604 39.5907 35.1319 39.2883 35.4343 38.2602C35.5955 37.2322 35.7366 36.1839 35.777 35.0954C35.1117 35.297 34.6078 35.4381 34.5675 35.7001L34.4264 36.6274C34.3659 36.9096 33.7813 36.9298 33.7611 36.5468C33.4991 35.3978 32.4509 35.2365 31.8058 37.0306C31.3825 37.3934 30.5963 37.4337 30.5157 36.9298C30.6165 35.7203 30.1327 35.559 29.1651 36.1235L28.2176 29.0681C28.6208 29.0681 29.0038 29.3503 29.3667 28.8867C28.9635 27.6167 28.0967 25.0566 27.6331 24.855C27.3912 24.5728 27.2097 24.7542 26.9074 24.8147C26.3832 24.976 25.8994 25.4194 26.0607 26.2862L27.6734 36.4057C27.754 36.829 27.3912 37.4136 26.9275 37.3531C26.1413 36.8088 25.9398 35.7404 24.6093 35.7808C23.6216 35.7808 22.5129 36.8491 22.3919 37.8772C22.2105 38.6835 22.15 39.5705 22.3919 40.276C23.0571 41.0824 23.8836 41.0219 24.6093 40.8203C25.1939 40.5784 25.6777 39.9938 25.8994 40.1349C26.0406 40.3164 25.9196 42.2515 23.0975 43.7634C21.4042 44.5294 20.0334 44.6907 19.3077 43.2998C18.8642 42.433 19.348 39.127 18.2393 39.8729V39.893Z" fill="white"/>
<path fill-rule="evenodd" clip-rule="evenodd" d="M32.209 31.2453C32.8742 31.0235 35.9987 27.4152 35.9987 27.4152L35.5351 27.0524C35.3537 26.8911 35.3738 26.75 35.5351 26.5887C36.3011 26.1453 36.0592 25.1373 35.6561 24.6939C35.3931 24.5626 35.1033 24.4942 34.8094 24.4942C34.5155 24.4942 34.2257 24.5626 33.9628 24.6939C33.4185 25.2381 33.2975 26.0646 33.7209 26.5887C34.124 26.7903 34.5675 27.1935 34.2853 27.4354C32.9952 28.8061 29.4876 31.1647 29.8908 31.2654C29.9714 31.3662 32.1485 31.3662 32.209 31.2654V31.2453ZM13.2805 43.945C12.1113 45.8197 12.0105 48.6217 12.6757 49.4481C12.9982 49.8513 13.5627 50.0126 13.986 49.8916C14.7318 49.5691 15.0544 48.0774 14.873 47.5331C14.6311 47.1299 14.4295 47.0896 14.1876 47.4122C13.6635 48.4604 13.4417 47.7347 13.4014 47.1501C13.3208 46.0414 13.4216 44.9932 13.5425 44.1868C13.6836 43.3604 13.5425 43.6023 13.2805 43.945ZM63.4945 40.9212C62.3657 38.4821 60.7933 36.0631 60.2894 35.1358C58.7692 32.7285 57.1553 30.3816 55.4514 28.1006C54.2419 26.6492 57.4471 28.7054 55.0482 25.8227C54.1411 25.0164 54.0807 24.9962 53.3146 24.3512C52.9316 24.069 52.0044 23.5852 51.8431 24.3915C51.763 24.9694 51.7903 25.5571 51.9237 26.1251C52.0044 26.5283 52.5889 27.1935 52.8913 27.5966C56.7214 32.737 60.1281 37.958 63.3937 44.4892C63.9179 44.2473 63.7969 41.3445 63.4945 40.9212Z" fill="white"/>
<path fill-rule="evenodd" clip-rule="evenodd" d="M58.5155 49.1256C58.2937 49.3877 59.0597 50.4561 60.0676 50.4561C61.7609 50.2545 63.2325 49.3071 64.6032 46.8276C64.9661 46.2229 65.6111 45.0134 65.6313 44.0256C65.7724 38.3813 65.3491 33.9868 64.5024 29.9149C64.4621 29.5117 64.5024 29.0279 64.5629 28.907C64.6637 28.786 65.0266 28.907 65.2281 28.6046C65.5104 28.3022 64.4621 25.8631 63.8775 24.9358C63.6558 24.5125 63.5752 24.2303 63.2325 24.9761C62.8495 25.5809 62.6277 26.6492 62.6277 27.637C63.4341 33.2007 63.6961 38.0789 64.2202 43.6224C64.2605 44.1667 64.1799 44.9529 63.8171 45.2553C62.3427 46.9049 60.5359 48.2239 58.5155 49.1256ZM81.2539 49.1055C80.0444 49.7909 80.0444 50.5972 81.0322 50.6375C82.7053 50.4359 84.701 50.2948 86.0717 48.2185C86.4346 47.6339 86.878 46.0616 86.8982 45.1142C87.0191 39.4699 86.8176 35.2366 85.9709 31.1647C85.9306 30.7615 85.7492 29.8544 85.8097 29.7335C85.9306 29.4512 86.4749 29.7536 86.6765 29.4311C86.9587 29.1489 85.2654 26.9516 84.6606 26.0042C84.4389 25.601 84.3583 25.3188 84.0156 26.0647C83.6326 26.6694 83.5116 27.7579 83.6527 28.7054C84.5599 34.7528 85.2251 39.2884 85.346 44.6304C85.2856 45.1545 85.2654 45.4367 85.0235 46.0616C84.4994 46.747 83.9148 47.5936 83.3504 47.9968C82.8061 48.3999 81.6369 48.8031 81.2539 49.1055Z" fill="white"/>
<path fill-rule="evenodd" clip-rule="evenodd" d="M82.161 43.6828V39.9938C82.1454 39.0746 81.9395 38.1686 81.5562 37.3329C81.1934 36.5266 81.4151 35.9017 81.2539 35.0349C81.0926 34.1882 81.1329 32.8981 80.891 31.8902C80.8104 31.487 80.6088 30.2372 80.6894 30.1163C80.7701 29.8341 81.1531 30.1163 81.3345 29.7938C81.6167 29.4914 80.3669 26.2661 79.742 25.359C79.5202 24.9558 79.1171 25.0767 78.593 25.7621C78.1293 26.1854 78.3108 27.1934 78.4922 28.1408C79.7017 34.4503 80.5886 40.1752 80.4072 46.1622C80.3467 46.6863 82.1811 44.6504 82.161 43.6828ZM73.2309 35.8614C72.485 35.8614 70.8925 34.3697 70.4087 33.523C70.3389 33.3189 70.3118 33.1027 70.3292 32.8876C70.3465 32.6726 70.4079 32.4635 70.5095 32.2732C70.7917 32.0716 71.2352 31.8701 71.5578 32.0716C71.5578 32.0716 71.8803 32.5554 71.8198 32.6159C72.223 32.8175 72.4246 32.6965 72.4649 32.5151C72.485 32.2329 72.3238 32.0515 72.3238 31.7088C72.5254 30.842 73.5333 30.7009 73.8961 31.2653C74.1783 31.608 74.2791 32.3337 74.3194 32.8376C74.3194 33.0795 73.9163 32.7772 73.6744 32.8376C73.4526 32.9183 73.3922 33.1803 73.372 33.4222C73.3317 34.0673 73.251 35.0954 73.2309 35.8412V35.8614ZM59.2008 45.2551C59.4024 43.3199 59.1403 39.9132 59.1201 38.7843C59.0395 36.1033 58.596 30.9226 58.3945 30.076C58.1526 28.4432 59.0597 30.2574 58.9387 29.31C58.6364 27.6973 57.7292 26.5684 56.681 25.0767C56.3383 24.6131 56.3585 24.5123 55.8142 25.1977C55.2498 26.5281 55.7537 27.4352 55.8948 28.4633C56.6608 31.8297 57.1043 34.9139 57.3059 37.978C57.5318 41.1649 57.5588 44.3628 57.3865 47.5531C57.9711 47.5934 58.8984 46.6259 59.2008 45.2551Z" fill="white"/>
<path fill-rule="evenodd" clip-rule="evenodd" d="M84.7614 42.171C83.4108 39.9334 81.395 37.4943 80.8507 36.5872C79.0458 34.0533 77.1497 31.5857 75.1661 29.1891C73.493 27.4353 75.9322 28.9069 74.8436 27.5563C73.9163 26.5484 73.6341 26.2258 72.8681 25.6211C72.4649 25.359 72.223 24.8752 72.1021 25.7017C72.0416 26.4274 72.0013 27.2741 72.0416 27.899C72.0416 28.2417 72.4045 28.8666 72.7068 29.2496C76.7385 34.2286 81.1733 39.3287 84.7413 45.7188C85.2452 45.4366 85.084 42.5741 84.7413 42.171H84.7614Z" fill="white"/>
<path fill-rule="evenodd" clip-rule="evenodd" d="M23.9441 38.0183C23.8433 38.1998 23.6216 38.4215 23.7022 38.6231C23.8635 38.8247 23.9845 38.8851 24.2264 38.9053C24.4279 38.9053 24.7505 38.9456 24.8109 38.8247C24.8836 38.7358 24.9313 38.6292 24.949 38.5158C24.9667 38.4024 24.9538 38.2864 24.9117 38.1796C24.7102 37.6152 24.0651 37.8168 23.9441 38.0183Z" fill="#1BA400"/>
<path fill-rule="evenodd" clip-rule="evenodd" d="M69.1791 70.8157C70.9732 70.8762 72.1424 70.8964 73.7349 71.0778L75.5895 70.8762C77.6657 70.6746 77.7665 73.8395 77.7665 73.8395C77.7464 75.694 77.0207 75.7746 76.1136 75.9762C75.5895 76.0569 75.3072 75.6739 75.0452 75.2707C74.7025 75.4118 74.2388 75.432 73.6543 75.3513C72.9084 75.311 72.1626 75.311 71.4369 75.2505C70.6305 75.1901 70.2072 75.3513 69.421 75.2707C69.2396 75.5327 69.0179 75.8754 68.5542 75.7746C68.1511 75.7343 67.6673 74.5853 67.8084 73.7387C68.0906 73.1138 68.01 73.3153 67.9898 73.0331C60.6522 72.8517 53.2743 72.5292 46.0778 72.63C40.4335 72.63 34.89 72.8719 29.3465 73.1138C26.3833 73.0735 24.1054 72.5897 22.5532 70.2916C22.6943 70.2916 30.1126 70.7351 32.2695 70.594C36.3011 70.5335 39.9498 70.211 44.0419 70.09C52.1051 70.2311 60.0676 70.2311 68.1309 70.7956C67.3649 70.2715 67.3246 69.0217 68.5341 68.7193C68.6147 68.6588 68.6752 69.324 68.8566 69.324C69.7839 69.2635 69.3807 70.5335 69.1791 70.8157ZM36.8454 26.4072C35.6359 29.8946 37.5308 33.7045 38.8612 33.3416C39.8288 33.7448 40.4335 31.9104 40.8367 29.9147C41.0988 29.3503 41.3004 29.2898 41.4415 29.572C41.4011 32.2329 41.643 32.8175 42.3284 33.6238C42.7228 33.9759 43.23 34.1755 43.7586 34.1866C44.2871 34.1977 44.8022 34.0195 45.211 33.6843L46.4004 32.4748C46.6624 32.2128 47.0051 32.1926 47.3881 32.4345C47.751 32.7772 47.6905 33.3416 48.4767 33.7448C49.1217 34.0069 50.5328 33.8053 50.8553 33.2408C51.2787 32.495 51.3996 32.2329 51.6012 31.9507C51.9036 31.5476 52.4277 31.7088 52.4277 31.8499C52.3874 32.0717 52.085 32.3136 52.2866 32.7167C52.6494 32.9989 52.7502 32.8175 52.9719 32.757C53.738 32.3942 54.3225 30.7009 54.3225 30.7009C54.3427 30.0962 54 30.1365 53.7783 30.2574L53.1735 30.6807C52.7704 30.7412 52.0447 30.9831 51.6818 30.4187C51.319 29.7535 51.2988 28.806 51.0166 28.1207C51.0166 28.0803 50.5328 27.0523 50.9964 26.9918C51.2182 27.0321 51.7221 27.1531 51.8028 26.7499C52.0447 26.3467 51.2787 25.1977 50.7545 24.6131C50.3111 24.1293 49.666 24.0689 49.0613 24.5728C48.6581 24.976 48.6984 25.3791 48.6178 25.8025C48.5481 26.0966 48.5482 26.4029 48.6182 26.697C48.6882 26.991 48.8262 27.2646 49.0209 27.4958C49.4443 28.3222 50.2304 29.3906 49.9684 30.9226C49.9684 30.9226 49.5047 31.6282 48.7186 31.5274C48.396 31.4468 47.8719 31.3258 47.5897 29.2294C47.3881 27.6369 47.63 25.4195 46.9648 24.3914C46.7229 23.7463 46.5616 23.1416 45.9569 24.2301C45.7956 24.6333 45.1103 25.2784 45.5941 26.6088C46.0552 27.7804 46.1944 29.0541 45.9972 30.2977C45.715 30.7211 45.6545 30.8823 45.2715 31.3057C44.7676 31.8499 44.2031 31.7088 43.7798 31.5072C43.3766 31.2452 43.0541 31.1041 42.8727 30.2373C42.913 28.8665 42.9735 26.629 42.7316 26.1452C42.3687 25.4195 41.764 25.6815 41.5019 25.9033C40.3322 27.2004 39.55 28.7998 39.2442 30.5195C38.9015 31.6282 38.5387 31.3258 38.2766 30.8622C37.6517 30.2574 37.6114 25.6412 36.8454 26.4072Z" fill="white"/>
<path fill-rule="evenodd" clip-rule="evenodd" d="M40.5142 34.007C41.0786 33.6038 40.8165 33.3418 41.643 34.1683C42.7069 36.0387 43.3275 38.1283 43.4573 40.2762C43.3968 40.7802 43.7596 41.0825 43.9209 40.9817C44.0015 39.8126 46.8842 38.1596 49.5047 37.9177C49.9079 37.8371 49.7063 37.071 49.7668 36.6679C49.6055 35.2165 50.5731 33.8861 51.964 33.7853C53.8186 34.0675 54.4435 35.0552 54.4838 36.5671C54.2822 39.49 51.2383 39.994 49.5249 40.1956C49.2628 40.3165 49.162 40.4375 49.5249 40.5786L56.681 40.5987L57.0439 40.8003C57.0842 41.0019 56.9431 40.8406 56.6407 41.3043C56.3384 41.7679 55.9554 42.8565 55.9352 43.562C53.7898 44.1882 51.5891 44.6067 49.3636 44.8118C48.5976 45.215 48.2146 45.7391 48.3557 46.3237C48.6178 46.9889 50.3514 47.6339 50.3514 47.6743C50.6739 47.8758 51.0569 48.3596 50.2506 49.3272C46.7632 49.1861 44.062 47.6944 43.1347 45.598C42.8525 45.3964 42.53 45.598 42.3486 45.8802C41.1349 47.7458 39.3851 49.2005 37.3292 50.0529C35.9383 50.3956 34.5272 49.8514 33.862 48.9442C33.4185 48.4201 33.4386 47.8557 33.2572 47.7347C32.5114 48.0573 26.0809 50.7988 26.9074 49.5288C28.4596 47.8355 31.1809 46.6059 33.5596 44.9529C33.7612 44.4086 34.0635 42.5339 35.011 41.9292C35.0513 41.9292 34.8497 43.0177 34.8699 43.4814C34.8699 43.8644 34.8497 44.0055 34.9303 43.9047C35.0916 43.8039 37.9944 41.526 38.2161 40.8205C38.4984 40.4173 38.2968 39.4094 38.2968 39.3691C37.7727 37.958 37.0066 37.8572 36.7244 37.1517C36.4624 36.2244 36.5833 35.1762 37.1074 34.8738C37.5711 34.4505 38.1153 34.4908 38.6395 34.9544C39.2442 35.4786 39.7482 36.5066 39.9094 37.2726C39.8086 37.575 39.1434 37.071 38.9015 37.2323C39.3047 37.6355 39.5063 38.1394 39.6474 38.7442C40.0505 40.3568 39.9094 40.9616 39.5466 42.0098C38.2565 44.711 36.6035 45.5375 35.1521 46.5252C35.1118 46.5454 35.0916 47.2308 35.6359 47.5936C35.8375 47.7952 36.5833 47.8758 37.4501 47.5936C39.3356 46.5526 40.8609 44.9641 41.8245 43.0379C42.0865 41.5865 41.7237 40.0545 41.3407 38.724C40.9012 37.6629 40.4979 36.5871 40.1312 35.4987C40.0908 34.6924 40.1513 34.4102 40.5343 34.007H40.5142ZM21.8074 26.4678C22.6137 26.8508 24.1659 26.6694 24.1054 25.3591L24.0651 24.7342C23.9038 24.3311 23.4402 24.4319 23.3394 24.8552C23.2991 24.9761 23.3999 25.1979 23.2789 25.2583C23.1983 25.3188 22.9362 25.2785 22.9564 24.9157C22.9564 24.7947 22.8757 24.6738 22.8153 24.5931C22.7548 24.573 22.7346 24.5528 22.6338 24.5528C22.5129 24.5528 22.5331 24.5931 22.4524 24.6939L22.3919 24.9963C22.3919 25.1374 22.3315 25.1777 22.2307 25.1979C22.1299 25.1979 22.15 25.1979 22.0694 25.1576C22.0089 25.0971 21.9485 25.0769 21.9485 24.9761L21.9081 24.6536C21.8545 24.5942 21.7843 24.552 21.7066 24.5326C21.2429 24.5326 21.2228 25.0568 21.2429 25.2583C21.2026 25.2785 21.1825 26.2058 21.8074 26.4678Z" fill="white"/>
<path fill-rule="evenodd" clip-rule="evenodd" d="M45.9166 36.6678C46.7229 37.071 48.6984 36.8291 48.2146 35.5591L48.1743 34.9544C48.013 34.5512 47.5696 34.652 47.4486 35.0552C47.4284 35.1761 47.5091 35.3979 47.3881 35.4584C47.3277 35.539 47.0656 35.4987 47.0656 35.1358C47.0656 35.0149 46.985 34.8939 46.9245 34.8133C46.8842 34.773 46.8439 34.773 46.7431 34.773C46.6423 34.773 46.6423 34.7931 46.5818 34.8939L46.5213 35.1963C46.5012 35.3374 46.4407 35.3979 46.3601 35.3979C46.2391 35.3979 46.2794 35.3979 46.1786 35.3576C46.1383 35.2971 46.0577 35.2769 46.0577 35.1761C46.0577 35.0753 46.0577 34.9141 46.0174 34.8536C45.9771 34.7931 45.8964 34.773 45.8158 34.7528C45.3723 34.7528 45.332 35.2568 45.3522 35.4584C45.332 35.4987 45.3118 36.4058 45.9166 36.6678ZM59.987 32.4346C60.7933 32.8378 62.3455 32.6564 62.285 31.3461L62.2447 30.7212C62.0835 30.318 61.6198 30.4188 61.519 30.822C61.4787 30.9631 61.5795 31.1647 61.4586 31.2251C61.3779 31.3058 61.1159 31.2654 61.136 30.9026C61.136 30.7816 61.0352 30.6607 60.9949 30.5801C60.9344 30.5599 60.9143 30.5398 60.7933 30.5398C60.6925 30.5398 60.6925 30.5801 60.6321 30.6809L60.5716 30.9832C60.5716 31.1042 60.5111 31.1647 60.4103 31.1848C60.3095 31.1848 60.3297 31.1848 60.2491 31.1243C60.1886 31.084 60.1281 31.0437 60.1281 30.9631C60.1281 30.8623 60.108 30.701 60.0676 30.6204C60.0273 30.5599 59.9668 30.5397 59.8661 30.5196C59.4226 30.5196 59.4024 31.0437 59.4226 31.2251C59.3823 31.2654 59.3621 32.1927 59.987 32.4346ZM67.244 43.058C65.8329 44.6707 66.4578 47.3315 66.7803 47.896C67.2641 48.8636 67.627 49.4683 68.5542 49.9319C69.4009 50.5367 70.0459 50.1537 70.4088 49.7304C71.2554 48.8636 71.2554 46.626 71.6586 46.1825C71.9408 45.3762 72.6262 45.5173 72.9689 45.8801C73.2801 46.3182 73.6959 46.6716 74.1784 46.9082C74.9646 47.5936 75.8918 47.7145 76.8191 47.1098C77.444 46.7469 77.8673 46.2833 78.2302 45.3762C78.6333 44.2675 78.4318 39.1876 78.331 36.184C78.3108 35.9421 77.5246 32.0315 77.5246 31.9911C77.5246 31.9508 77.4037 29.9955 77.3231 29.5318C77.3231 29.3504 77.2626 29.2899 77.4642 29.3303C77.6657 29.4915 77.7061 29.5117 77.827 29.5722C78.0286 29.6125 78.2302 29.2496 78.1092 28.9069L76.1337 25.2785C75.9926 25.1374 75.791 24.9761 75.529 25.3389C75.3765 25.4719 75.2543 25.6361 75.1708 25.8205C75.0874 26.0048 75.0445 26.205 75.0452 26.4073C75.1057 27.2741 75.2468 28.1409 75.3072 29.0077L76.1136 33.4022C76.3555 36.5469 76.4159 39.107 76.6578 42.2718C76.6175 43.5821 76.2144 44.7513 75.8112 44.8924C75.8112 44.8924 75.2266 45.2552 74.8436 44.8924C74.5412 44.7513 73.3922 42.9572 73.3922 42.9572C72.7875 42.4129 72.4246 42.554 71.9811 42.9572C70.8523 44.0659 70.3282 46.1624 69.542 47.5936C69.3404 47.9161 68.7558 48.1983 68.1309 47.5734C66.5183 45.356 67.4657 42.2517 67.2641 43.058H67.244ZM60.3499 24.7342C61.0957 25.0366 61.5997 26.5484 61.4384 27.2741C61.2973 28.1611 60.8941 29.1488 60.6321 29.0077C60.3095 28.9069 60.8336 28.1208 60.5313 27.2943C60.37 26.7702 59.3621 25.7824 59.4629 25.5002C59.2613 24.8955 59.9064 24.6334 60.3499 24.7342Z" fill="white"/>
<path fill-rule="evenodd" clip-rule="evenodd" d="M69.6428 43.9448C69.7839 42.1305 69.5218 41.042 69.4815 39.9938C69.4412 38.9455 68.272 30.9226 68.0704 30.1162C67.7681 28.6044 69.1791 29.9147 69.0179 29.0277C68.5341 27.919 67.3447 26.3063 66.9617 25.3589C66.74 24.9557 66.8206 24.5727 66.3167 25.238C65.8815 26.4368 65.7297 27.7201 65.8732 28.9874C67.0827 35.2969 68.3123 40.538 68.1107 46.5452C68.6953 46.5452 69.3606 45.2349 69.6428 43.9246V43.9448ZM82.2215 27.2739C82.9069 27.6166 83.2899 29.4913 83.2294 30.0155C83.0883 31.0032 82.7254 32.0313 82.4634 31.9103C82.2013 31.7894 82.5239 30.4589 82.3828 30.0558C82.2416 29.4712 81.3345 28.423 81.4152 28.1004C81.2337 27.4554 81.8183 27.1731 82.2215 27.2941V27.2739ZM32.2896 40.538C32.9347 40.8001 33.2975 42.1507 33.2371 42.5539C33.1161 43.2796 32.7734 44.0456 32.5315 43.9649C32.2695 43.8641 32.5718 42.8965 32.4509 42.5942C32.3904 41.8483 31.5034 41.4653 31.5236 41.1629C31.3623 40.5582 31.9066 40.4574 32.2896 40.5582V40.538Z" fill="white"/>
<path fill-rule="evenodd" clip-rule="evenodd" d="M47.8316 42.6144C48.6379 42.6547 49.0612 43.32 48.2952 43.582C47.5292 43.8441 46.7833 44.0457 46.7833 45.1544C47.0656 46.7065 46.3802 46.1623 45.977 45.9607C45.5134 45.618 44.1829 44.8117 44.0015 43.0377C43.9813 42.6346 44.3039 42.2717 44.828 42.2717C45.6343 42.4733 46.8035 42.5136 47.8114 42.6144H47.8316Z" fill="#1B9D00"/>
<path fill-rule="evenodd" clip-rule="evenodd" d="M15.1148 24.2908C16.0623 24.573 16.1227 25.9639 16.0421 26.3872C15.9212 27.1331 15.5785 27.9192 15.3366 27.8184C15.0745 27.7378 15.3366 26.7299 15.2156 26.4074C15.0745 25.9639 14.2682 25.1576 14.369 24.9157C14.1674 24.4319 14.7318 24.2101 15.1148 24.3109V24.2908ZM33.8418 30.8623C33.1161 31.2655 32.8339 32.4347 33.2774 33.12C33.7007 33.7248 34.3659 33.5031 34.4667 33.5031C35.1722 33.5837 35.5956 32.1525 35.5956 32.1525C35.5956 32.1525 35.6157 31.7493 34.7892 32.5153C34.4264 32.5758 34.3861 32.4548 34.2853 32.2532C34.1993 31.874 34.2419 31.4769 34.4062 31.1244C34.5272 30.7817 34.245 30.6204 33.8418 30.8623ZM39.2845 23.7465C38.9418 24.0085 38.196 24.7544 38.1758 25.6212C38.1758 26.105 38.075 26.105 38.3774 26.4275C38.6193 26.7501 38.8612 26.7299 39.3248 26.488C39.4402 26.4132 39.5391 26.3156 39.6154 26.2012C39.6916 26.0868 39.7437 25.958 39.7683 25.8228C39.8893 25.2583 39.1837 26.0848 39.1031 25.4599C38.9418 24.8955 39.3853 24.6536 39.8086 24.0892C39.8086 23.7062 39.8086 23.4441 39.3047 23.7465H39.2845ZM43.6992 24.5528C43.5234 25.2599 43.4154 25.9822 43.3766 26.7097C43.2557 27.254 43.9411 27.4758 44.2636 26.7702C44.7272 25.5002 44.7272 24.956 44.7675 24.4117C44.6264 23.6054 44.062 23.6054 43.6992 24.5327V24.5528ZM71.4167 38.6434C71.4973 38.5426 75.3274 35.8212 75.3274 35.8212C75.7104 35.7003 75.6298 37.2323 75.4483 37.2323C74.2654 38.3789 72.9037 39.3253 71.4167 40.0343C71.2151 40.1553 71.0337 38.9861 71.4167 38.6232V38.6434ZM74.8839 38.6232C75.5491 38.9458 75.8313 40.9213 75.7507 41.4454C75.7709 42.4936 75.1056 43.3201 74.8436 43.179C74.5614 43.058 74.8637 41.8889 74.7428 41.4857C74.6017 40.9011 74.0171 39.8126 74.1179 39.5102C73.9163 38.845 74.4807 38.5023 74.8839 38.6232ZM52.2261 47.0897C52.4881 46.6865 53.2945 46.1422 53.3146 46.1422C53.6976 45.9407 54.0605 46.2834 54.0403 46.2632C54.1008 46.6462 53.7984 46.9889 53.8992 47.4928C53.9798 47.6944 54.0403 47.9162 54.4233 47.8355C55.0281 47.3719 55.5925 47.3316 56.1972 47.2913C56.6609 47.3316 56.6609 48.0976 56.3787 48.1177C55.2498 48.3596 54.766 48.662 53.9597 48.9644C53.5767 49.1861 53.2542 48.9039 53.2542 48.8838C53.2542 48.8636 53.0526 48.662 53.1937 48.1581C53.2138 47.7549 53.0526 47.5533 52.73 47.5936C52.468 47.7146 52.2462 47.7952 52.1253 47.513C52.0648 47.3114 52.0648 47.2106 52.2261 47.0897ZM78.8954 48.1379C79.0567 48.3395 79.1776 48.5411 78.8954 48.8838L78.1697 49.4885C78.0286 49.7304 77.9681 50.0529 78.3511 50.1537C79.0566 50.3553 80.7096 49.2869 80.7096 49.2668C80.9717 49.0652 80.891 48.6822 80.8507 48.6822C80.7096 48.5008 80.3468 48.6015 80.125 48.5814C80.0041 48.5814 79.6412 48.5209 79.8025 48.1984C79.9638 47.9968 80.0041 47.8759 80.1049 47.6138C80.2258 47.3719 80.125 47.2106 79.7219 47.0695C79.3187 47.009 79.1574 47.0494 78.714 47.0695C78.4519 47.13 78.3713 47.2308 78.3108 47.5332C78.3511 47.9766 78.6132 47.9565 78.9155 48.1379H78.8954Z" fill="white"/>
<path fill-rule="evenodd" clip-rule="evenodd" d="M52.3672 37.0507C52.2664 37.2523 51.9036 37.2321 51.5609 37.0507C51.2182 36.8693 51.0569 36.5468 51.1577 36.3653C51.2585 36.1839 51.6214 36.1839 51.964 36.3653C52.3067 36.5468 52.468 36.8693 52.3672 37.0507ZM34.9707 26.6088C34.7691 26.6692 34.507 26.4878 34.3861 26.2056C34.2651 25.9234 34.3256 25.7016 34.5272 25.6412C34.7288 25.5807 34.9908 25.7823 35.1118 26.0443C35.2327 26.3064 35.1723 26.5684 34.9707 26.6088Z" fill="#259F00"/>
<path fill-rule="evenodd" clip-rule="evenodd" d="M69.3807 73.2349C71.1949 73.3155 72.9285 73.255 74.7428 73.3558C75.0855 73.6179 74.8436 74.3234 74.6218 74.2629L73.0898 74.2226C73.0898 73.638 71.5779 73.7388 71.6384 74.2428C70.8321 74.3436 70.1064 74.2226 69.3001 74.1823C69.0582 73.8799 69.0985 73.3558 69.3807 73.2349Z" fill="#209000"/>
</svg>
