<svg width="100" height="100" viewBox="0 0 100 100" fill="none" xmlns="http://www.w3.org/2000/svg">
<path fill-rule="evenodd" clip-rule="evenodd" d="M0 0H190.002V7.69238H0V0ZM0 15.3848H190.002V23.0771H0V15.3848ZM0 30.7695H190.002V38.4619H0V30.7695ZM0 46.1543H190.002V53.8467H0V46.1543ZM0 61.5391H190.002V69.2314H0V61.5391ZM0 76.9238H190.002V84.6162H0V76.9238ZM0 92.3086H190.002V100.001H0V92.3086Z" fill="#BD3D44"/>
<path fill-rule="evenodd" clip-rule="evenodd" d="M0 7.69238H190.002V15.3848H0V7.69238ZM0 23.0771H190.002V30.7695H0V23.0771ZM0 38.4619H190.002V46.1543H0V38.4619ZM0 53.8467H190.002V61.5391H0V53.8467ZM0 69.2314H190.002V76.9238H0V69.2314ZM0 84.6162H190.002V92.3086H0V84.6162Z" fill="white"/>
<path fill-rule="evenodd" clip-rule="evenodd" d="M0 0H76.0007V53.8467H0V0Z" fill="#192F5D"/>
<path fill-rule="evenodd" clip-rule="evenodd" d="M6.30773 2.30762L7.07697 4.46148H9.23083L7.46159 5.76919L8.1539 7.84613L6.30773 6.53843L4.61541 7.84613L5.30772 5.76919L3.46155 4.46148H5.76926L6.30773 2.30762ZM19.0002 2.30762L19.6925 4.46148H21.9233L20.0771 5.76919L20.8463 7.84613L19.0002 6.53843L17.154 7.84613L17.9232 5.76919L16.0771 4.46148H18.3078L19.0002 2.30762ZM31.6926 2.30762L32.3849 4.46148H34.6157L32.7695 5.76919L33.5388 7.84613L31.6926 6.53843L29.8464 7.84613L30.6157 5.76919L28.7695 4.46148H31.0003L31.6926 2.30762ZM44.3081 2.30762L45.0773 4.46148H47.2312L45.462 5.76919L46.1543 7.84613L44.3081 6.53843L42.5389 7.84613L43.2312 5.76919L41.385 4.46148H43.6927L44.3081 2.30762ZM57.0005 2.30762L57.6928 4.46148H59.9236L58.0775 5.76919L58.8467 7.84613L56.9236 6.53843L55.1544 7.84613L55.8467 5.76919L54.0005 4.46148H56.2313L57.0005 2.30762ZM69.693 2.30762L70.3853 4.46148H72.6161L70.7699 5.76919L71.5391 7.84613L69.693 6.53843L67.8468 7.84613L68.616 5.76919L66.7699 4.46148H69.0006L69.693 2.30762ZM12.6924 7.69229L13.3847 9.84615H15.6155L13.7693 11.1539L14.5386 13.2308L12.6924 11.9231L10.8462 13.2308L11.6155 11.1539L9.7693 9.84615H12.0001L12.6924 7.69229ZM25.3079 7.69229L26.0772 9.84615H28.231L26.4618 11.1539L27.1541 13.2308L25.3079 11.9231L23.5387 13.2308L24.231 11.1539L22.3848 9.84615H24.6925L25.3079 7.69229ZM38.0003 7.69229L38.6927 9.84615H40.9235L39.0773 11.1539L39.8465 13.2308L38.0003 11.9231L36.1542 13.2308L36.9234 11.1539L35.0772 9.84615H37.308L38.0003 7.69229ZM50.6928 7.69229L51.3851 9.84615H53.6159L51.7697 11.1539L52.539 13.2308L50.6928 11.9231L48.8466 13.2308L49.6158 11.1539L47.7697 9.84615H50.0005L50.6928 7.69229ZM63.3083 7.69229L64.0775 9.84615H66.1545L64.3852 11.1539L65.0775 13.2308L63.2314 11.9231L61.4621 13.2308L62.1544 11.1539L60.3083 9.84615H62.616L63.3083 7.69229ZM6.38465 13.077L7.00004 15.2308H9.30776L7.46159 16.5385L8.1539 18.6155L6.30773 17.3078L4.61541 18.6155L5.30772 16.5385L3.46155 15.2308H5.76926L6.38465 13.077ZM19.0002 13.077L19.6925 15.2308H21.9233L20.154 16.5385L20.8463 18.6155L19.0002 17.3078L17.2309 18.6155L17.9232 16.5385L16.0771 15.2308H18.3078L19.0002 13.077ZM31.6926 13.077L32.3849 15.2308H34.6157L32.7695 16.5385L33.5388 18.6155L31.6926 17.3078L29.8464 18.6155L30.6157 16.5385L28.7695 15.2308H31.0003L31.6926 13.077ZM44.3081 13.077L45.0773 15.2308H47.2312L45.462 16.5385L46.1543 18.6155L44.3081 17.3078L42.5389 18.6155L43.2312 16.5385L41.385 15.2308H43.6927L44.3081 13.077ZM57.0005 13.077L57.6928 15.2308H59.9236L58.1544 16.5385L58.8467 18.6155L57.0005 17.3078L55.2313 18.6155L55.9236 16.5385L54.0774 15.2308H56.3082L57.0005 13.077ZM69.693 13.077L70.3853 15.2308H72.6161L70.7699 16.5385L71.5391 18.6155L69.693 17.3078L67.8468 18.6155L68.616 16.5385L66.7699 15.2308H69.0006L69.693 13.077ZM12.6924 18.4616L13.3847 20.6155H15.6155L13.7693 21.9232L14.5386 24.0001L12.6924 22.6924L10.8462 24.0001L11.6155 21.9232L9.7693 20.6155H12.0001L12.6924 18.4616ZM25.3079 18.4616L26.0772 20.6155H28.231L26.4618 21.9232L27.1541 24.0001L25.3079 22.6924L23.5387 24.0001L24.231 21.9232L22.3848 20.6155H24.6925L25.3079 18.4616ZM38.0003 18.4616L38.6927 20.6155H40.9235L39.1542 21.9232L39.8465 24.0001L38.0003 22.6924L36.2311 24.0001L36.9234 21.9232L35.0772 20.6155H37.308L38.0003 18.4616ZM50.6928 18.4616L51.3851 20.6155H53.6159L51.7697 21.9232L52.539 24.0001L50.6928 22.6924L48.8466 24.0001L49.6158 21.9232L47.7697 20.6155H50.0005L50.6928 18.4616ZM63.3083 18.4616L64.0775 20.6155H66.1545L64.3852 21.9232L65.0775 24.0001L63.2314 22.6924L61.4621 24.0001L62.1544 21.9232L60.3083 20.6155H62.616L63.3083 18.4616ZM6.38465 23.8463L7.00004 26.0002H9.30776L7.46159 27.3079L8.1539 29.3848L6.30773 28.0771L4.61541 29.3848L5.30772 27.3079L3.46155 26.0002H5.76926L6.38465 23.8463ZM19.0002 23.8463L19.6925 26.0002H21.9233L20.154 27.3079L20.8463 29.3848L19.0002 28.0771L17.2309 29.3848L17.9232 27.3079L16.0771 26.0002H18.3078L19.0002 23.8463ZM31.6926 23.8463L32.3849 26.0002H34.6157L32.7695 27.3079L33.5388 29.3848L31.6926 28.0771L29.8464 29.3848L30.6157 27.3079L28.7695 26.0002H31.0003L31.6926 23.8463ZM44.3081 23.8463L45.0773 26.0002H47.2312L45.462 27.3079L46.1543 29.3848L44.3081 28.0771L42.5389 29.3848L43.2312 27.3079L41.385 26.0002H43.6927L44.3081 23.8463ZM57.0005 23.8463L57.6928 26.0002H59.9236L58.1544 27.3079L58.8467 29.3848L57.0005 28.0771L55.2313 29.3848L55.9236 27.3079L54.0774 26.0002H56.3082L57.0005 23.8463ZM69.693 23.8463L70.3853 26.0002H72.6161L70.7699 27.3079L71.5391 29.3848L69.693 28.0771L67.8468 29.3848L68.616 27.3079L66.7699 26.0002H69.0006L69.693 23.8463ZM12.6924 29.231L13.3847 31.3848H15.6155L13.7693 32.6925L14.5386 34.7695L12.6924 33.4618L10.8462 34.7695L11.6155 32.6925L9.7693 31.3848H12.0001L12.6924 29.231ZM25.3079 29.231L26.0772 31.3848H28.231L26.4618 32.6925L27.1541 34.7695L25.3079 33.4618L23.5387 34.7695L24.231 32.6925L22.3848 31.3848H24.6925L25.3079 29.231ZM38.0003 29.231L38.6927 31.3848H40.9235L39.1542 32.6925L39.8465 34.7695L38.0003 33.4618L36.2311 34.7695L36.9234 32.6925L35.0772 31.3848H37.308L38.0003 29.231ZM50.6928 29.231L51.3851 31.3848H53.6159L51.7697 32.6925L52.539 34.7695L50.6928 33.4618L48.8466 34.7695L49.6158 32.6925L47.7697 31.3848H50.0005L50.6928 29.231ZM63.3083 29.231L64.0775 31.3848H66.1545L64.3852 32.6925L65.0775 34.7695L63.2314 33.4618L61.4621 34.7695L62.1544 32.6925L60.3083 31.3848H62.616L63.3083 29.231ZM6.38465 34.6156L7.00004 36.7695H9.30776L7.46159 38.0772L8.1539 40.1541L6.30773 38.8464L4.61541 40.1541L5.30772 38.0772L3.46155 36.7695H5.76926L6.38465 34.6156ZM19.0002 34.6156L19.6925 36.7695H21.9233L20.154 38.0772L20.8463 40.1541L19.0002 38.8464L17.2309 40.1541L17.9232 38.0772L16.0771 36.7695H18.3078L19.0002 34.6156ZM31.6926 34.6156L32.3849 36.7695H34.6157L32.7695 38.0772L33.5388 40.1541L31.6926 38.8464L29.8464 40.1541L30.6157 38.0772L28.7695 36.7695H31.0003L31.6926 34.6156ZM44.3081 34.6156L45.0773 36.7695H47.2312L45.462 38.0772L46.1543 40.1541L44.3081 38.8464L42.5389 40.1541L43.2312 38.0772L41.385 36.7695H43.6927L44.3081 34.6156ZM57.0005 34.6156L57.6928 36.7695H59.9236L58.1544 38.0772L58.8467 40.1541L57.0005 38.8464L55.2313 40.1541L55.9236 38.0772L54.0774 36.7695H56.3082L57.0005 34.6156ZM69.693 34.6156L70.3853 36.7695H72.6161L70.7699 38.0772L71.5391 40.1541L69.693 38.8464L67.8468 40.1541L68.616 38.0772L66.7699 36.7695H69.0006L69.693 34.6156ZM12.6924 40.0003L13.3847 42.1542H15.6155L13.7693 43.4619L14.5386 45.5388L12.6924 44.2311L10.8462 45.5388L11.6155 43.4619L9.7693 42.1542H12.0001L12.6924 40.0003ZM25.3079 40.0003L26.0772 42.1542H28.231L26.4618 43.4619L27.1541 45.5388L25.3079 44.2311L23.5387 45.5388L24.231 43.4619L22.3848 42.1542H24.6925L25.3079 40.0003ZM38.0003 40.0003L38.6927 42.1542H40.9235L39.1542 43.4619L39.8465 45.5388L38.0003 44.2311L36.2311 45.5388L36.9234 43.4619L35.0772 42.1542H37.308L38.0003 40.0003ZM50.6928 40.0003L51.3851 42.1542H53.6159L51.7697 43.4619L52.539 45.5388L50.6928 44.2311L48.8466 45.5388L49.6158 43.4619L47.7697 42.1542H50.0005L50.6928 40.0003ZM63.3083 40.0003L64.0775 42.1542H66.1545L64.3852 43.4619L65.0775 45.5388L63.2314 44.2311L61.4621 45.5388L62.1544 43.4619L60.3083 42.1542H62.616L63.3083 40.0003ZM6.38465 45.385L7.00004 47.5388H9.30776L7.46159 48.8465L8.1539 50.9235L6.30773 49.6158L4.61541 50.9235L5.30772 48.8465L3.46155 47.5388H5.76926L6.38465 45.385ZM19.0002 45.385L19.6925 47.5388H21.9233L20.154 48.8465L20.8463 50.9235L19.0002 49.6158L17.2309 50.9235L17.9232 48.8465L16.0771 47.5388H18.3078L19.0002 45.385ZM31.6926 45.385L32.3849 47.5388H34.6157L32.7695 48.8465L33.5388 50.9235L31.6926 49.6158L29.8464 50.9235L30.6157 48.8465L28.7695 47.5388H31.0003L31.6926 45.385ZM44.3081 45.385L45.0773 47.5388H47.2312L45.462 48.8465L46.1543 50.9235L44.3081 49.6158L42.5389 50.9235L43.2312 48.8465L41.385 47.5388H43.6927L44.3081 45.385ZM57.0005 45.385L57.6928 47.5388H59.9236L58.1544 48.8465L58.8467 50.9235L57.0005 49.6158L55.2313 50.9235L55.9236 48.8465L54.0774 47.5388H56.3082L57.0005 45.385ZM69.693 45.385L70.3853 47.5388H72.6161L70.7699 48.8465L71.5391 50.9235L69.693 49.6158L67.8468 50.9235L68.616 48.8465L66.7699 47.5388H69.0006L69.693 45.385Z" fill="white"/>
</svg>
